<svg width="36" height="36" viewBox="0 0 36 36" fill="none" xmlns="http://www.w3.org/2000/svg">
<circle cx="18" cy="18" r="18" fill="#7BAF21"/>
<g clip-path="url(#clip0_240_2557)">
<path d="M20.3667 18.6668C20.8667 18.6668 21.3067 18.3935 21.5334 17.9802L23.9201 13.6535C24.1667 13.2135 23.8467 12.6668 23.3401 12.6668H13.4734L12.8467 11.3335H10.6667V12.6668H12.0001L14.4001 17.7268L13.5001 19.3535C13.0134 20.2468 13.6534 21.3335 14.6667 21.3335H22.6667V20.0002H14.6667L15.4001 18.6668H20.3667ZM14.1067 14.0002H22.2067L20.3667 17.3335H15.6867L14.1067 14.0002ZM14.6667 22.0002C13.9334 22.0002 13.3401 22.6002 13.3401 23.3335C13.3401 24.0668 13.9334 24.6668 14.6667 24.6668C15.4001 24.6668 16.0001 24.0668 16.0001 23.3335C16.0001 22.6002 15.4001 22.0002 14.6667 22.0002ZM21.3334 22.0002C20.6001 22.0002 20.0067 22.6002 20.0067 23.3335C20.0067 24.0668 20.6001 24.6668 21.3334 24.6668C22.0667 24.6668 22.6667 24.0668 22.6667 23.3335C22.6667 22.6002 22.0667 22.0002 21.3334 22.0002Z" fill="white"/>
</g>
<defs>
<clipPath id="clip0_240_2557">
<rect width="16" height="16" fill="white" transform="translate(10 10)"/>
</clipPath>
</defs>
</svg>
