<svg width="32" height="32" viewBox="0 0 32 32" fill="none" xmlns="http://www.w3.org/2000/svg">
<g clip-path="url(#clip0_166_124)">
<path d="M20.7333 17.3332C21.7333 17.3332 22.6132 16.7865 23.0666 15.9598L27.8399 7.3065C28.3333 6.4265 27.6933 5.33317 26.6799 5.33317H6.94659L5.69325 2.6665H1.33325V5.33317H3.99992L8.79992 15.4532L6.99992 18.7065C6.02659 20.4932 7.30658 22.6665 9.33325 22.6665H25.3333V19.9998H9.33325L10.7999 17.3332H20.7333ZM8.21325 7.99984H24.4132L20.7333 14.6665H11.3733L8.21325 7.99984ZM9.33325 23.9998C7.86658 23.9998 6.67992 25.1998 6.67992 26.6665C6.67992 28.1332 7.86658 29.3332 9.33325 29.3332C10.7999 29.3332 11.9999 28.1332 11.9999 26.6665C11.9999 25.1998 10.7999 23.9998 9.33325 23.9998ZM22.6666 23.9998C21.1999 23.9998 20.0133 25.1998 20.0133 26.6665C20.0133 28.1332 21.1999 29.3332 22.6666 29.3332C24.1333 29.3332 25.3333 28.1332 25.3333 26.6665C25.3333 25.1998 24.1333 23.9998 22.6666 23.9998Z" fill="#9A9A9A"/>
<ellipse cx="26.6666" cy="5.33333" rx="5.33333" ry="5.33333" fill="#7BAF21"/>
</g>
<defs>
<clipPath id="clip0_166_124">
<rect width="32" height="32" fill="white"/>
</clipPath>
</defs>
</svg>
