<svg width="32" height="32" viewBox="0 0 32 32" fill="none" xmlns="http://www.w3.org/2000/svg">
<g clip-path="url(#clip0_101_8082)">
<path d="M26.6667 10.6668H22.6667V5.3335H4.00004C2.53337 5.3335 1.33337 6.5335 1.33337 8.00016V22.6668H4.00004C4.00004 24.8802 5.78671 26.6668 8.00004 26.6668C10.2134 26.6668 12 24.8802 12 22.6668H20C20 24.8802 21.7867 26.6668 24 26.6668C26.2134 26.6668 28 24.8802 28 22.6668H30.6667V16.0002L26.6667 10.6668ZM26 12.6668L28.6134 16.0002H22.6667V12.6668H26ZM8.00004 24.0002C7.26671 24.0002 6.66671 23.4002 6.66671 22.6668C6.66671 21.9335 7.26671 21.3335 8.00004 21.3335C8.73337 21.3335 9.33337 21.9335 9.33337 22.6668C9.33337 23.4002 8.73337 24.0002 8.00004 24.0002ZM10.96 20.0002C10.2267 19.1868 9.18671 18.6668 8.00004 18.6668C6.81337 18.6668 5.77337 19.1868 5.04004 20.0002H4.00004V8.00016H20V20.0002H10.96ZM24 24.0002C23.2667 24.0002 22.6667 23.4002 22.6667 22.6668C22.6667 21.9335 23.2667 21.3335 24 21.3335C24.7334 21.3335 25.3334 21.9335 25.3334 22.6668C25.3334 23.4002 24.7334 24.0002 24 24.0002Z" fill="#6C6C6C"/>
</g>
<defs>
<clipPath id="clip0_101_8082">
<rect width="32" height="32" fill="white"/>
</clipPath>
</defs>
</svg>
