<svg width="195" height="72" viewBox="0 0 195 72" fill="none" xmlns="http://www.w3.org/2000/svg">
<path fill-rule="evenodd" clip-rule="evenodd" d="M46.649 27.4395L46.6309 27.4848L46.6274 27.4933L46.6086 27.5374C46.2452 28.3639 45.4296 28.9398 44.4833 28.9398C44.4236 28.9398 44.3656 28.9373 44.307 28.9331H44.3049C43.4628 28.9281 40.406 28.9264 40.3011 28.9262C36.4675 28.9264 33.3554 32.0916 33.3554 35.9916C33.3554 39.8932 36.4671 43.0576 40.3011 43.0574C40.4209 43.0576 44.3974 43.0559 44.5138 43.0485L44.5142 43.0521C44.7041 43.0547 44.8889 43.0803 45.0652 43.1265L45.0687 43.1273L45.0894 43.1327L45.1005 43.1359L45.1414 43.1476L45.1442 43.1485L45.1789 43.1592L45.1983 43.1655C45.251 43.1827 45.3028 43.2018 45.3538 43.2226L45.3629 43.2264C46.2136 43.5784 46.8136 44.4279 46.8136 45.4198C46.8136 46.7268 45.7716 47.7865 44.4867 47.7865H44.4832H44.4831L44.474 47.7861H44.4721H44.4696H44.4672H44.4647L44.4628 47.7859H44.4603H44.4579H44.4554H44.4533H44.4509H44.4484H44.4459H44.4457L44.4205 47.7851H44.4181H44.4158H44.4133H44.4108L44.4075 47.7849L44.4016 47.7845H44.399L44.3433 47.7815H44.3413H44.3388H44.3338C43.5378 47.7845 40.4075 47.7866 40.3012 47.7864C33.9013 47.7866 28.7052 42.5029 28.7056 35.9916C28.7057 29.4821 33.9013 24.1971 40.3012 24.1973C40.4071 24.1971 43.5336 24.2 44.3322 24.2029C44.3834 24.1994 44.4348 24.1973 44.4868 24.1973C45.7717 24.1973 46.8136 25.257 46.8136 26.5639C46.8136 26.8735 46.7554 27.1685 46.6491 27.4396L46.649 27.4395Z" fill="#285F38"/>
<path fill-rule="evenodd" clip-rule="evenodd" d="M51.4093 24.1958L51.4606 24.1965L51.4679 24.1966L51.4698 24.1969C52.6561 24.2323 53.6169 25.1837 53.6911 26.3802C53.7003 26.4339 53.7053 26.1701 53.7053 26.5298C53.7053 26.8894 53.7029 26.648 53.6986 26.7066V26.7087L53.6984 26.7091C53.6941 27.553 53.7547 36.0501 53.7547 36.1552C53.7547 40.0004 56.8225 43.1215 60.6041 43.1215C64.3858 43.1215 67.4541 40.0004 67.4541 36.1552C67.4541 36.0349 67.3901 26.6156 67.3832 26.4987H67.3871C67.4024 25.3042 68.2958 24.3255 69.4472 24.2077L69.4474 24.2074L69.505 24.2023H69.5052L69.5634 24.1985H69.5637L69.6221 24.1965H69.6225L69.6813 24.1958H69.6819C70.9489 24.1958 71.9763 25.2408 71.9763 26.5295V26.5297L71.9759 26.56C71.9759 27.1219 71.9737 26.7246 71.9712 26.6799V26.6778V26.6767V26.6763V26.6772V26.6794C71.9743 27.4778 72.0388 36.0488 72.0388 36.1552C72.0388 42.5742 66.9157 47.7852 60.6042 47.7852C54.2927 47.7852 49.1699 42.5743 49.1699 36.1552C49.1699 36.0446 49.1105 28.0528 49.1133 26.6908C49.1096 26.6374 49.1074 27.1923 49.1074 26.5295C49.1074 25.8667 50.1075 24.2242 51.3507 24.1964L51.4018 24.1958H51.4093L51.4093 24.1958Z" fill="#285F38"/>
<path fill-rule="evenodd" clip-rule="evenodd" d="M76.5718 47.7852L76.6229 47.7846L76.6302 47.7844L76.632 47.7842C77.8137 47.7489 78.7707 46.8011 78.8445 45.6094C78.8537 45.556 78.8587 45.5057 78.8587 45.4605C78.8587 44.7892 78.8563 45.3427 78.852 45.2844V45.2823L78.8519 45.2819C78.8476 44.4413 78.8458 35.8849 78.8458 35.7801C78.8458 31.9501 81.9023 28.8411 85.6682 28.8411C89.4358 28.8411 92.4913 31.9501 92.4913 35.7801C92.4913 35.9 92.4899 45.3749 92.483 45.4915H92.4869C92.5031 46.7607 93.5151 47.7853 94.7721 47.7853L94.7858 47.785H94.7883L94.8025 47.7853H94.81L94.8611 47.7846L94.8684 47.7845L94.8702 47.7843C96.0521 47.7492 97.009 46.8013 97.0828 45.6095C97.0919 45.556 97.097 45.5057 97.097 45.4605C97.097 44.7892 97.0945 45.3428 97.0903 45.2844V45.2823L97.0901 45.282C97.0858 44.4413 97.084 35.8849 97.084 35.7802C97.084 31.9501 100.141 28.8412 103.906 28.8412C107.674 28.8412 110.73 31.9501 110.73 35.7802C110.73 35.9 110.728 45.3749 110.721 45.4915H110.725C110.741 46.6815 111.63 47.6564 112.777 47.7735L112.777 47.7738L112.835 47.7789H112.835L112.893 47.7826H112.893L112.951 47.7847H112.952L113.01 47.7853H113.011C114.273 47.7853 115.296 46.7444 115.296 45.4608V45.4605L115.296 45.4304C115.296 44.8707 115.294 45.2664 115.291 45.311V45.3131V45.3141V45.3145V45.3137V45.3114C115.294 44.5161 115.296 35.8862 115.296 35.7802C115.296 29.3863 110.194 24.1958 103.906 24.1958C100.178 24.1958 96.8654 26.0225 94.7872 28.8426C92.7093 26.0225 89.3975 24.1958 85.6682 24.1958C79.382 24.1958 74.2788 29.3863 74.2788 35.7802C74.2788 35.8903 74.2819 43.9434 74.2847 45.3001C74.281 45.3533 74.2788 45.4065 74.2788 45.4608C74.2788 46.7271 75.275 47.757 76.5133 47.7847L76.5642 47.7853H76.5717L76.5718 47.7852Z" fill="#285F38"/>
<path fill-rule="evenodd" clip-rule="evenodd" d="M122.161 36.6113V36.6086V36.607V36.6058C122.157 36.5451 122.154 36.4845 122.153 36.4235L122.15 36.034V36.0334V36.0237V36.0206V36.0132V36.0078V36.0023V35.9953L122.153 35.5422C122.155 35.4965 122.156 35.451 122.159 35.4056C122.16 35.4737 122.161 35.5256 122.161 35.3635C122.374 31.7273 125.343 28.8411 128.971 28.8411C132.739 28.8411 135.795 31.9501 135.795 35.7801C135.795 35.9 135.793 45.1095 135.786 45.226H135.79C135.805 46.416 136.695 47.3905 137.842 47.5076L137.842 47.5079L137.9 47.5126L137.9 47.5128L137.958 47.5168H137.958L138.016 47.5189H138.017L138.075 47.5198H138.076C139.338 47.5198 140.361 46.479 140.361 45.1953V45.1951L140.361 45.1646C140.361 44.6048 140.359 45 140.356 45.0445V45.0466V45.048V45.0485V45.0477V45.046V45.0458C140.359 44.2495 140.361 35.8862 140.361 35.7802C140.361 29.3863 135.259 24.1958 128.971 24.1958C123.051 24.1958 118.18 28.8006 117.634 34.6782C117.607 34.8162 117.591 34.9583 117.589 35.1041H117.588C117.587 35.1571 117.586 35.3648 117.585 35.5861C117.584 35.6508 117.582 35.7151 117.582 35.7801L117.583 35.9957V36.0006L117.582 36.2009C117.582 36.2508 117.583 36.3005 117.584 36.3504C117.585 36.6276 117.586 36.9114 117.588 36.9716H117.59C117.592 37.1475 117.614 37.3196 117.652 37.4839C118.281 43.2752 123.112 47.7852 128.971 47.7852V47.7851L128.987 47.7852C130.249 47.7852 131.273 46.7444 131.273 45.4608C131.273 44.1771 130.249 43.1362 128.987 43.1362C128.95 43.1362 128.913 43.1368 128.876 43.1387C125.289 43.0887 122.368 40.2189 122.161 36.6113V36.6113Z" fill="#285F38"/>
<path fill-rule="evenodd" clip-rule="evenodd" d="M144.962 47.7853L145.013 47.7847L145.02 47.7844L145.022 47.7843C146.204 47.749 147.161 46.8011 147.235 45.6095C147.244 45.556 147.249 45.5057 147.249 45.4605C147.249 44.7892 147.246 45.3428 147.242 45.2844V45.2824L147.242 45.282C147.238 44.4413 147.236 35.885 147.236 35.7802C147.236 31.9501 150.292 28.8412 154.058 28.8412C157.826 28.8412 160.881 31.9501 160.881 35.7802C160.881 35.9 160.88 45.375 160.873 45.4915H160.877C160.892 46.6815 161.782 47.6564 162.929 47.7736L162.929 47.7737L162.987 47.7789H162.987L163.045 47.7826H163.045L163.103 47.7847H163.104L163.162 47.7853H163.163C164.425 47.7853 165.448 46.7444 165.448 45.4607V45.4605L165.448 45.4304C165.448 44.8707 165.446 45.2664 165.443 45.311V45.3131V45.3141V45.3145V45.3137V45.3114C165.446 44.5161 165.448 35.8862 165.448 35.7802C165.448 29.3863 160.346 24.1958 154.058 24.1958C147.772 24.1958 142.669 29.3863 142.669 35.7802C142.669 35.8903 142.672 43.9434 142.675 45.3001C142.671 45.3533 142.669 45.4065 142.669 45.4607C142.669 46.7271 143.665 47.757 144.903 47.7847L144.954 47.7853H144.962H144.962Z" fill="#285F38"/>
</svg>
