<svg width="20.000244" height="19.959961" viewBox="0 0 20.0002 19.96" fill="none" xmlns="http://www.w3.org/2000/svg" xmlns:xlink="http://www.w3.org/1999/xlink">
	<desc>
			Created with Pixso.
	</desc>
	<defs/>
	<path id="Vector" d="M12.1685 11.71L13.5686 9.29004C13.6584 9.14014 13.6187 8.9502 13.4885 8.83984L12.0085 7.68018C12.0386 7.45996 12.0586 7.22998 12.0586 7C12.0586 6.77002 12.0386 6.54004 12.0085 6.31006L13.4885 5.1499C13.6187 5.04004 13.6584 4.8501 13.5686 4.7002L12.1685 2.27979C12.0786 2.12988 11.8984 2.06982 11.7385 2.12988L9.99854 2.83008C9.63843 2.5498 9.24854 2.31982 8.8186 2.14014L8.55859 0.290039C8.52856 0.129883 8.37842 0 8.2085 0L5.40845 0C5.23853 0 5.08862 0.129883 5.05859 0.299805L4.79858 2.1499C4.37842 2.33008 3.97852 2.56006 3.61865 2.83984L1.87842 2.14014C1.71851 2.08008 1.53857 2.14014 1.44849 2.29004L0.048584 4.70996C-0.0415039 4.85986 -0.00146484 5.0498 0.128418 5.16016L1.60864 6.31982C1.57861 6.54004 1.55859 6.77002 1.55859 7C1.55859 7.22998 1.57861 7.45996 1.60864 7.68994L0.128418 8.8501C-0.00146484 8.95996 -0.0415039 9.1499 0.048584 9.2998L1.44849 11.7202C1.53857 11.8701 1.71851 11.9302 1.87842 11.8701L3.61865 11.1699C3.97852 11.4502 4.36865 11.6802 4.79858 11.8599L5.05859 13.71C5.08862 13.8701 5.23853 14 5.40845 14L8.2085 14C8.37842 14 8.52856 13.8701 8.55859 13.7002L8.8186 11.8501C9.23853 11.6699 9.63843 11.4399 9.99854 11.1602L11.7385 11.8599C11.8984 11.9199 12.0786 11.8599 12.1685 11.71ZM6.80859 9C5.7085 9 4.80859 8.1001 4.80859 7C4.80859 5.8999 5.7085 5 6.80859 5C7.90845 5 8.80859 5.8999 8.80859 7C8.80859 8.1001 7.90845 9 6.80859 9Z" fill="#6C6C6C" fill-opacity="1.000000" fill-rule="nonzero"/>
	<path id="Vector" d="M19.9185 16.6699L18.9585 15.9302C18.9785 15.79 18.9985 15.6401 18.9985 15.4902C18.9985 15.3398 18.9885 15.1899 18.9585 15.0498L19.9084 14.3101C19.9885 14.2402 20.0186 14.1201 19.9585 14.02L19.0586 12.4702C19.0085 12.3701 18.8884 12.3398 18.7786 12.3701L17.6685 12.8198C17.4385 12.6401 17.1885 12.4902 16.9084 12.3799L16.7385 11.2002C16.7285 11.0801 16.6284 11 16.5286 11L14.7385 11C14.6284 11 14.5286 11.0801 14.5186 11.1899L14.3486 12.3701C14.0786 12.4902 13.8186 12.6299 13.5886 12.8101L12.4785 12.3599C12.3784 12.3198 12.2585 12.3599 12.1985 12.46L11.2986 14.0098C11.2485 14.1099 11.2585 14.23 11.3486 14.2998L12.2986 15.04C12.2786 15.1802 12.2686 15.3301 12.2686 15.48C12.2686 15.6299 12.2786 15.7798 12.2986 15.9199L11.3486 16.6602C11.2686 16.73 11.2385 16.8501 11.2986 16.9502L12.1985 18.5C12.2485 18.6001 12.3684 18.6299 12.4785 18.6001L13.5886 18.1499C13.8186 18.3301 14.0686 18.48 14.3486 18.5898L14.5186 19.77C14.5386 19.8799 14.6284 19.96 14.7385 19.96L16.5286 19.96C16.6384 19.96 16.7385 19.8799 16.7485 19.77L16.9185 18.5898C17.1885 18.4702 17.4485 18.3301 17.6685 18.1499L18.7886 18.6001C18.8884 18.6401 19.0085 18.6001 19.0686 18.5L19.9685 16.9502C20.0286 16.8599 19.9985 16.7402 19.9185 16.6699ZM15.6284 16.8301C14.8884 16.8301 14.2786 16.23 14.2786 15.48C14.2786 14.73 14.8784 14.1299 15.6284 14.1299C16.3784 14.1299 16.9785 14.73 16.9785 15.48C16.9785 16.23 16.3684 16.8301 15.6284 16.8301Z" fill="#6C6C6C" fill-opacity="1.000000" fill-rule="nonzero"/>
</svg>
